<?xml version="1.0" encoding="utf-8"?>
<!-- Svg Vector Icons : http://www.onlinewebfonts.com/icon -->
<!DOCTYPE svg PUBLIC "-//W3C//DTD SVG 1.1//EN" "http://www.w3.org/Graphics/SVG/1.1/DTD/svg11.dtd">
<svg version="1.1" xmlns="http://www.w3.org/2000/svg" xmlns:xlink="http://www.w3.org/1999/xlink" x="0px" y="0px" viewBox="0 0 1000 1000" enable-background="new 0 0 1000 1000" xml:space="preserve">
<metadata> Svg Vector Icons : http://www.onlinewebfonts.com/icon </metadata>
<g><g transform="translate(0,512) scale(0.1,-0.1)"><path d="M4753.2,4961c-99.9-48-247.9-188.3-1120.3-1062.6l-1003.1-1005L3652.2,1873c964.6-962.7,1030-1024.2,1135.6-1062.6c303.6-111.5,638,17.3,776.3,301.7c46.1,94.2,53.8,132.6,53.8,272.9c0,230.6-46.1,307.5-361.3,628.3l-249.8,255.6h75c138.3-1.9,488.1-55.7,668.7-103.8c488.1-134.5,918.5-384.3,1277.8-743.6c409.3-407.4,666.8-889.7,791.7-1477.7c61.5-288.2,61.5-766.7,1.9-1066.5c-119.1-599.5-370.8-1070.3-801.3-1498.8c-442-443.9-924.3-695.6-1537.2-799.4c-196-34.6-282.5-38.4-566.9-30.8c-367,11.5-507.3,34.6-818.6,138.4c-424.7,140.3-787.8,367-1114.5,691.8c-307.4,305.5-501.5,601.4-651.4,985.8c-292.1,761-255.6,1593,105.7,2311.7c101.8,199.8,142.2,355.5,124.9,484.2c-80.7,618.7-870.5,805.1-1212.5,286.3c-98-144.1-244-478.5-336.3-759C529.6-788.3,923.6-2440.9,2024.6-3545.8c328.6-330.5,672.5-580.3,1078-787.8c578.4-294,1116.4-428.5,1779.4-443.9c563-15.4,928.1,38.4,1437.3,205.6c1512.3,495.8,2576.8,1762.1,2836.2,3372.3c25,151.8,34.6,319,34.6,595.7c0,422.8-25,639.9-124.9,1035.7c-372.8,1489.2-1554.6,2661.3-3063,3036c-217.1,53.8-515,99.9-766.7,119.1l-169.1,11.5l240.2,242.1c276.7,284.4,311.3,347.8,311.3,580.3c-1.9,103.8-11.5,169.1-42.3,232.5C5433.5,4968.6,5058.8,5108.9,4753.2,4961z"/></g></g>
</svg>