<?xml version="1.0" encoding="UTF-8" standalone="no"?>
<svg
   xmlns:dc="http://purl.org/dc/elements/1.1/"
   xmlns:cc="http://creativecommons.org/ns#"
   xmlns:rdf="http://www.w3.org/1999/02/22-rdf-syntax-ns#"
   xmlns:svg="http://www.w3.org/2000/svg"
   xmlns="http://www.w3.org/2000/svg"
   xmlns:sodipodi="http://sodipodi.sourceforge.net/DTD/sodipodi-0.dtd"
   xmlns:inkscape="http://www.inkscape.org/namespaces/inkscape"
   viewBox="0 -256 1850 1850"
   id="svg3025"
   version="1.1"
   inkscape:version="0.48.3.1 r9886"
   width="100%"
   height="100%"
   sodipodi:docname="fast_forward_font_awesome.svg">
  <metadata
     id="metadata3035">
    <rdf:RDF>
      <cc:Work
         rdf:about="">
        <dc:format>image/svg+xml</dc:format>
        <dc:type
           rdf:resource="http://purl.org/dc/dcmitype/StillImage" />
      </cc:Work>
    </rdf:RDF>
  </metadata>
  <defs
     id="defs3033" />
  <sodipodi:namedview
     pagecolor="#ffffff"
     bordercolor="#666666"
     borderopacity="1"
     objecttolerance="10"
     gridtolerance="10"
     guidetolerance="10"
     inkscape:pageopacity="0"
     inkscape:pageshadow="2"
     inkscape:window-width="640"
     inkscape:window-height="480"
     id="namedview3031"
     showgrid="false"
     inkscape:zoom="0.13169643"
     inkscape:cx="896"
     inkscape:cy="896"
     inkscape:window-x="0"
     inkscape:window-y="25"
     inkscape:window-maximized="0"
     inkscape:current-layer="svg3025" />
  <g
     transform="matrix(1,0,0,-1,37.966102,1320.6441)"
     id="g3027">
    <path
       d="m 45,-115 q -19,-19 -32,-13 -13,6 -13,32 v 1472 q 0,26 13,32 13,6 32,-13 L 755,685 q 8,-8 13,-19 v 710 q 0,26 13,32 13,6 32,-13 l 710,-710 q 8,-8 13,-19 v 678 q 0,26 19,45 19,19 45,19 h 128 q 26,0 45,-19 19,-19 19,-45 V -64 q 0,-26 -19,-45 -19,-19 -45,-19 h -128 q -26,0 -45,19 -19,19 -19,45 v 678 q -5,-10 -13,-19 L 813,-115 q -19,-19 -32,-13 -13,6 -13,32 v 710 q -5,-10 -13,-19 z"
       id="path3029"
       inkscape:connector-curvature="0"
       style="fill:currentColor" />
  </g>
</svg>
