<svg version="1.0" xmlns="http://www.w3.org/2000/svg"
 width="512" height="512" viewBox="0 0 512 512"
 preserveAspectRatio="xMidYMid meet">

<g transform="translate(0,512) scale(0.1,-0.1)"
fill="#000000" stroke="none">
<path d="M349 4744 l-24 -26 0 -2160 0 -2160 24 -19 c13 -10 35 -19 50 -19 14
0 172 73 351 163 237 118 330 170 345 190 20 28 20 43 20 1850 0 1793 0 1822
-20 1851 -15 22 -97 67 -349 192 -182 90 -340 164 -352 164 -11 0 -31 -12 -45
-26z"/>
<path d="M1776 4048 c-24 -34 -24 -2942 0 -2976 8 -12 23 -22 33 -22 10 0 326
151 702 336 1425 700 1751 860 1995 980 154 74 258 131 268 145 22 32 20 63
-6 93 -14 14 -367 194 -843 429 -451 223 -1107 547 -1459 721 -351 174 -647
316 -657 316 -10 0 -25 -10 -33 -22z"/>
</g>
</svg>
